<mxfile host="65bd71144e">
    <diagram id="UM7qVhCkFp4DtuJXSjJj" name="Page-1">
        <mxGraphModel dx="755" dy="809" grid="1" gridSize="10" guides="1" tooltips="1" connect="1" arrows="1" fold="1" page="1" pageScale="1" pageWidth="850" pageHeight="1100" math="0" shadow="0">
            <root>
                <mxCell id="0"/>
                <mxCell id="1" parent="0"/>
                <mxCell id="3" value="" style="rounded=0;whiteSpace=wrap;html=1;" vertex="1" parent="1">
                    <mxGeometry x="63" y="60" width="725" height="410" as="geometry"/>
                </mxCell>
                <mxCell id="4" value="Takbar" style="rounded=0;whiteSpace=wrap;html=1;" vertex="1" parent="1">
                    <mxGeometry x="63" y="60" width="727" height="30" as="geometry"/>
                </mxCell>
                <mxCell id="5" value="App Intro" style="rounded=0;whiteSpace=wrap;html=1;" vertex="1" parent="1">
                    <mxGeometry x="80" y="110" width="350" height="170" as="geometry"/>
                </mxCell>
                <mxCell id="6" value="How the app works" style="rounded=0;whiteSpace=wrap;html=1;" vertex="1" parent="1">
                    <mxGeometry x="440" y="110" width="330" height="170" as="geometry"/>
                </mxCell>
                <mxCell id="7" value="Login" style="rounded=0;whiteSpace=wrap;html=1;" vertex="1" parent="1">
                    <mxGeometry x="702" y="65" width="68" height="20" as="geometry"/>
                </mxCell>
                <mxCell id="8" value="Website Link" style="rounded=0;whiteSpace=wrap;html=1;" vertex="1" parent="1">
                    <mxGeometry x="80" y="300" width="350" height="60" as="geometry"/>
                </mxCell>
                <mxCell id="9" value="get started button" style="rounded=0;whiteSpace=wrap;html=1;" vertex="1" parent="1">
                    <mxGeometry x="440" y="300" width="330" height="60" as="geometry"/>
                </mxCell>
            </root>
        </mxGraphModel>
    </diagram>
</mxfile>